<svg width="24" height="24" viewBox="0 0 24 24" fill="none" xmlns="http://www.w3.org/2000/svg">
<path d="M1.342 10.248L9.342 3.24802C9.637 2.99002 10.057 2.92902 10.413 3.09002C10.77 3.25202 11 3.60802 11 4.00102V7.14802C16.472 8.06902 22 10.059 22 19.001C22 19.432 21.725 19.813 21.316 19.949C21.212 19.984 21.105 20.001 21 20.001C20.691 20.001 20.393 19.857 20.2 19.601C17.561 16.083 14.681 15.147 11 15.018V18.001C11 18.394 10.771 18.749 10.413 18.911C10.059 19.074 9.638 19.012 9.342 18.754L1.342 11.754C1.124 11.564 1 11.29 1 11.002C1 10.714 1.124 10.44 1.342 10.25V10.248Z" fill="#454951"/>
</svg>
