<svg width="24" height="24" viewBox="0 0 24 24" fill="none" xmlns="http://www.w3.org/2000/svg">
<path d="M22.658 10.248L14.658 3.24802C14.363 2.99002 13.943 2.92902 13.587 3.09002C13.23 3.25202 13 3.60802 13 4.00102V7.14802C7.528 8.06902 2 10.059 2 19.001C2 19.432 2.275 19.813 2.684 19.949C2.788 19.984 2.895 20.001 3 20.001C3.309 20.001 3.607 19.857 3.8 19.601C6.439 16.083 9.319 15.147 13 15.018V18.001C13 18.394 13.229 18.749 13.587 18.911C13.941 19.074 14.362 19.012 14.658 18.754L22.658 11.754C22.876 11.564 23 11.29 23 11.002C23 10.714 22.876 10.44 22.658 10.25V10.248Z" fill="#454951"/>
</svg>
