<svg width="24" height="24" viewBox="0 0 24 24" fill="none" xmlns="http://www.w3.org/2000/svg">
<path fill-rule="evenodd" clip-rule="evenodd" d="M10.5599 4.06704C10.2919 3.94543 9.97759 3.99179 9.75612 4.18558L1.75612 11.1856C1.59336 11.328 1.5 11.5337 1.5 11.75C1.5 11.9663 1.59336 12.172 1.75612 12.3144L9.75612 19.3144C9.97759 19.5082 10.2919 19.5546 10.5599 19.433C10.8279 19.3114 11 19.0443 11 18.75V15.5097C12.9255 15.5614 14.579 15.8246 16.0615 16.4423C17.7209 17.1337 19.2185 18.2914 20.65 20.2C20.8437 20.4583 21.1809 20.5636 21.4872 20.4615C21.7934 20.3594 22 20.0728 22 19.75C22 15.6051 20.8532 12.8621 18.7088 11.0519C16.7481 9.39682 14.0544 8.6148 11 8.1094V4.75001C11 4.45573 10.8279 4.18864 10.5599 4.06704ZM9.5 6.40284V8.75001C9.5 9.12084 9.771 9.436 10.1376 9.49155C13.4211 9.98904 15.9872 10.7175 17.7412 12.1981C19.0995 13.3448 20.0441 15.0096 20.3724 17.5873C19.2194 16.4385 17.9864 15.6193 16.6385 15.0577C14.71 14.2542 12.5989 14 10.25 14C9.83579 14 9.5 14.3358 9.5 14.75V17.0972L3.38894 11.75L9.5 6.40284Z" fill="#454951"/>
</svg>
