<svg width="24" height="24" viewBox="0 0 24 24" fill="none" xmlns="http://www.w3.org/2000/svg">
<path fill-rule="evenodd" clip-rule="evenodd" d="M8.40235 3.43707C9.27041 2.45834 10.5832 2 11.75 2C12.9477 2 14.1295 2.47754 15.0629 3.40235C16.0417 4.27041 16.5 5.58316 16.5 6.75C16.5 7.94772 16.0225 9.12946 15.0976 10.0629C14.2296 11.0417 12.9168 11.5 11.75 11.5C10.5523 11.5 9.37064 11.0225 8.43719 10.0978C7.46531 9.2371 7 8.02694 7 6.75C7 5.55228 7.47754 4.37054 8.40235 3.43707ZM11.75 3.5C10.9244 3.5 10.0466 3.83571 9.51443 4.44388L9.49799 4.46267L9.48033 4.48033C8.81649 5.14417 8.5 5.95517 8.5 6.75C8.5 7.66479 8.82864 8.44724 9.44388 8.98557L9.46267 9.00201L9.48033 9.01967C10.1442 9.68351 10.9552 10 11.75 10C12.5756 10 13.4534 9.66429 13.9856 9.05612L14.002 9.03733L14.0197 9.01967C14.6835 8.35583 15 7.54483 15 6.75C15 5.92439 14.6643 5.04658 14.0561 4.51443L14.0373 4.49799L14.0197 4.48033C13.3558 3.81649 12.5448 3.5 11.75 3.5Z" fill="#454951"/>
<path fill-rule="evenodd" clip-rule="evenodd" d="M7.75 15.5C6.95517 15.5 6.14417 15.8165 5.48033 16.4803L5.46267 16.498L5.44388 16.5144C4.82864 17.0528 4.5 17.8352 4.5 18.75V21.75H3V18.75C3 17.4731 3.46531 16.2629 4.43719 15.4022C5.37064 14.4775 6.55233 14 7.75 14H15.75C17.0269 14 18.2371 14.4653 19.0978 15.4372C20.0225 16.3706 20.5 17.5523 20.5 18.75V21.75H19V18.75C19 17.9552 18.6835 17.1442 18.0197 16.4803L18.002 16.4627L17.9856 16.4439C17.4472 15.8286 16.6648 15.5 15.75 15.5H7.75Z" fill="#454951"/>
</svg>
