<svg width="24" height="24" viewBox="0 0 24 24" fill="none" xmlns="http://www.w3.org/2000/svg">
<path fill-rule="evenodd" clip-rule="evenodd" d="M13.4401 4.06704C13.7081 3.94543 14.0224 3.99179 14.2439 4.18558L22.2439 11.1856C22.4066 11.328 22.5 11.5337 22.5 11.75C22.5 11.9663 22.4066 12.172 22.2439 12.3144L14.2439 19.3144C14.0224 19.5082 13.7081 19.5546 13.4401 19.433C13.1721 19.3114 13 19.0443 13 18.75V15.5097C11.0745 15.5614 9.42098 15.8246 7.93846 16.4423C6.27906 17.1337 4.78146 18.2914 3.35 20.2C3.15631 20.4583 2.81909 20.5636 2.51283 20.4615C2.20657 20.3594 2 20.0728 2 19.75C2 15.6051 3.14684 12.8621 5.29121 11.0519C7.25185 9.39682 9.94565 8.6148 13 8.1094V4.75001C13 4.45573 13.1721 4.18864 13.4401 4.06704ZM14.5 6.40284V8.75001C14.5 9.12084 14.229 9.436 13.8624 9.49155C10.5789 9.98904 8.01279 10.7175 6.25879 12.1981C4.90046 13.3448 3.95594 15.0096 3.62761 17.5873C4.78065 16.4385 6.01363 15.6193 7.36154 15.0577C9.29 14.2542 11.4011 14 13.75 14C14.1642 14 14.5 14.3358 14.5 14.75V17.0972L20.6111 11.75L14.5 6.40284Z" fill="#454951"/>
</svg>
